<svg id="Layer_1" data-name="Layer 1" xmlns="http://www.w3.org/2000/svg" viewBox="0 0 1493.68 500"><path d="M500,221.85l0-.89a10.79,10.79,0,0,0-10.32-10.57,43.35,43.35,0,0,1-37.19-24.73,10.67,10.67,0,0,0-2.49-3.49,11.06,11.06,0,0,0-13.7-.9,44.53,44.53,0,0,1-25.16,7.87,43.91,43.91,0,0,1-21.67-5.75,42.85,42.85,0,0,1-21.56-40.89,10.76,10.76,0,0,0-11.8-11.8c-1.3.11-2.62.17-3.93.17a43.76,43.76,0,0,1-37.7-21.43,42.53,42.53,0,0,1,1.91-45.83,11.53,11.53,0,0,0,2.15-5.13,10.74,10.74,0,0,0-6.23-11.12,42.73,42.73,0,0,1-25.21-36.71A10.8,10.8,0,0,0,276.35.48h-.89l-2.08,0L50.05.47A50.07,50.07,0,0,0,0,50.54v399.9a50,50,0,0,0,50,50l400-.35a50,50,0,0,0,50-50l0-226.2S500,222.53,500,221.85Z" transform="translate(0 -0.44)" style="fill:#ef5350"/><path d="M654.64,272.54h56.77v23.73H624.25V187.71h85.14v23.73H654.64Zm-2.17-42.8h50.41v22.95H652.47Z" transform="translate(0 -0.44)" style="fill:#ef5350"/><path d="M766.62,298.44A98,98,0,0,1,741,295.11q-12.33-3.33-20.08-8.61L731,263.86a71.27,71.27,0,0,0,16.83,7.68,62.76,62.76,0,0,0,19,3A36.86,36.86,0,0,0,777,273.4a12.5,12.5,0,0,0,5.66-3.1,6.56,6.56,0,0,0,1.79-4.58,6.68,6.68,0,0,0-3.42-5.89,30.65,30.65,0,0,0-8.84-3.57q-5.43-1.39-12-2.79A123.92,123.92,0,0,1,747,249.9a52.53,52.53,0,0,1-12-5.66,27.64,27.64,0,0,1-8.84-9.15q-3.4-5.66-3.41-14.35a30.85,30.85,0,0,1,5.35-17.68q5.35-7.91,16-12.71t26.68-4.81a92.36,92.36,0,0,1,21,2.4A67.29,67.29,0,0,1,810.2,195l-9.46,22.8a73.29,73.29,0,0,0-15.35-6.28,55.27,55.27,0,0,0-14.74-2.1,32.48,32.48,0,0,0-10.23,1.32,11.68,11.68,0,0,0-5.59,3.49,7.79,7.79,0,0,0-1.7,5,6.4,6.4,0,0,0,3.33,5.66,29.65,29.65,0,0,0,8.84,3.42q5.51,1.32,12.1,2.71t13.18,3.49a50.54,50.54,0,0,1,12,5.58,27,27,0,0,1,8.76,9.15q3.35,5.67,3.34,14.19a30.68,30.68,0,0,1-5.35,17.45q-5.36,8-16,12.8T766.62,298.44Z" transform="translate(0 -0.44)" style="fill:#ef5350"/><path d="M882.94,298.44a67.12,67.12,0,0,1-23.81-4.11,55.21,55.21,0,0,1-18.92-11.7,54.53,54.53,0,0,1-12.49-17.92,59.73,59.73,0,0,1,0-45.44,54.49,54.49,0,0,1,12.49-17.91,55.24,55.24,0,0,1,18.92-11.71,67.12,67.12,0,0,1,23.81-4.11,65.68,65.68,0,0,1,26.9,5.27A51.77,51.77,0,0,1,929.62,206l-19.54,17.68a38.63,38.63,0,0,0-11.56-9.46,30,30,0,0,0-14-3.26,33.65,33.65,0,0,0-12.25,2.17,26.18,26.18,0,0,0-9.54,6.29,29.57,29.57,0,0,0-6.21,9.84,37.08,37.08,0,0,0,0,25.44,29.52,29.52,0,0,0,6.21,9.85,26.16,26.16,0,0,0,9.54,6.28A33.44,33.44,0,0,0,884.49,273a30,30,0,0,0,14-3.26,38.48,38.48,0,0,0,11.56-9.46L929.62,278a53,53,0,0,1-19.78,15.12A64.73,64.73,0,0,1,882.94,298.44Z" transform="translate(0 -0.44)" style="fill:#ef5350"/><path d="M995.69,298.44a67.11,67.11,0,0,1-24-4.18,57.15,57.15,0,0,1-19.16-11.87A54.11,54.11,0,0,1,935.36,242a55.32,55.32,0,0,1,4.49-22.49,54.72,54.72,0,0,1,12.64-17.91,57.13,57.13,0,0,1,19.16-11.86,71.26,71.26,0,0,1,48.15,0,56,56,0,0,1,31.64,29.77,55.69,55.69,0,0,1-12.64,63,57.15,57.15,0,0,1-19,11.79A67,67,0,0,1,995.69,298.44Zm0-25.43a30.4,30.4,0,0,0,11.55-2.17,26.75,26.75,0,0,0,9.31-6.28,29.65,29.65,0,0,0,6.2-9.85,37.28,37.28,0,0,0,0-25.51,29.8,29.8,0,0,0-6.2-9.77,26.77,26.77,0,0,0-9.31-6.29,31.85,31.85,0,0,0-23.11,0,26.73,26.73,0,0,0-9.3,6.29,29.67,29.67,0,0,0-6.21,9.77,37.28,37.28,0,0,0,0,25.51,29.52,29.52,0,0,0,6.21,9.85,26.71,26.71,0,0,0,9.3,6.28A30.41,30.41,0,0,0,995.69,273Z" transform="translate(0 -0.44)" style="fill:#ef5350"/><path d="M1126.43,298.44a67.77,67.77,0,0,1-23.89-4.11,54.15,54.15,0,0,1-31.48-29.62,59.61,59.61,0,0,1,0-45.44,54.09,54.09,0,0,1,12.56-17.91,55.82,55.82,0,0,1,19.16-11.71,75,75,0,0,1,51.72,1,51.39,51.39,0,0,1,20,14.73L1155,223.07a39,39,0,0,0-12-9.07,33.25,33.25,0,0,0-14.34-3,35.89,35.89,0,0,0-12.72,2.17,26.76,26.76,0,0,0-9.77,6.29,29,29,0,0,0-6.28,9.77,36.82,36.82,0,0,0,0,25.35,28.91,28.91,0,0,0,6.28,9.85,27.79,27.79,0,0,0,9.69,6.36,33.56,33.56,0,0,0,12.49,2.25,40.62,40.62,0,0,0,13.34-2.25,43.86,43.86,0,0,0,13.18-7.68L1172,284.64a70.45,70.45,0,0,1-21.55,10.24A86.08,86.08,0,0,1,1126.43,298.44Zm18.45-17.83V239.67H1172v45Z" transform="translate(0 -0.44)" style="fill:#ef5350"/><path d="M1222,272.54h56.77v23.73h-87.17V187.71h85.15v23.73H1222Zm-2.17-42.8h50.41v22.95h-50.41Z" transform="translate(0 -0.44)" style="fill:#ef5350"/><path d="M1318.89,296.27V212.06h-33.34V187.71h97.24v24.35H1349.6v84.21Z" transform="translate(0 -0.44)" style="fill:#ef5350"/><path d="M1442.66,298.44q-24,0-37.53-13.18t-13.5-37.38V187.71h30.71V247q0,14,5.51,20T1443,273q9.62,0,15-6.05t5.43-20V187.71h30.24v60.17q0,24.19-13.49,37.38T1442.66,298.44Z" transform="translate(0 -0.44)" style="fill:#ef5350"/></svg>